<svg id="QP" xmlns="http://www.w3.org/2000/svg" viewBox="0 0 97.83 67.65"><defs><style>.cls-1{fill:#000;opacity:0.2;}</style></defs><title>QL8</title><path class="cls-1" d="M5567.1,1004.56c-6.21,0-11.8,3.19-14.11,8a10.92,10.92,0,0,0-1.12,4.72c0,7.05,6.78,12.77,15.16,12.78s15.18-5.71,15.18-12.76S5575.46,1004.58,5567.1,1004.56Zm9.5,13.08a1.92,1.92,0,0,1-2,1.48h-5.43v4.62a2,2,0,0,1-4,0h0v-4.62h-5.49a1.93,1.93,0,0,1-2.05-1.48,0.56,0.56,0,0,1,0-.22,1.88,1.88,0,0,1,2-1.7h5.49v-4.62a2,2,0,0,1,4,0h0v4.65h5.49a1.88,1.88,0,0,1,2,1.7h0A0.57,0.57,0,0,1,5576.6,1017.64ZM5532,1032c-7.88,0-14.27,5.38-14.27,12s6.39,12,14.27,12,14.27-5.38,14.27-12-6.39-12-14.27-12h0Zm0,19.59c-5,0-9-3.38-9-7.55s4-7.55,9-7.55,9,3.38,9,7.55-4,7.52-9,7.52v0Zm14.27-34.28a15.54,15.54,0,0,1,3.56-9.82l-1.12-1.74a2.8,2.8,0,0,0-2.39-1.22h-28.07a2.83,2.83,0,0,0-2.35,1.17l-7.89,11.91h-20.92a2.51,2.51,0,0,0-2.69,2.26v50a2.51,2.51,0,0,0,2.69,2.26h89.79a2.51,2.51,0,0,0,2.69-2.26v-38.53c-9.23,5.79-22.3,4.19-29.18-3.59A15.8,15.8,0,0,1,5546.24,1017.34ZM5532,1061c-11.14,0-20.17-7.6-20.17-17s9-17,20.17-17,20.17,7.6,20.17,17-9,17-20.17,17h0Z" transform="translate(-5484.38 -1004.56)"/></svg>