<?xml version="1.0" encoding="utf-8"?>
<!-- Generator: Adobe Illustrator 21.1.0, SVG Export Plug-In . SVG Version: 6.00 Build 0)  -->
<svg version="1.1" id="Слой_1" xmlns="http://www.w3.org/2000/svg" xmlns:xlink="http://www.w3.org/1999/xlink" x="0px" y="0px"
	 viewBox="0 0 48 48" style="enable-background:new 0 0 48 48;" xml:space="preserve">
<style type="text/css">
	.st0{fill:#5D6DBE;}
	.st1{fill:#FFFFFF;}
</style>
<g>
	<g>
		<path class="st0" d="M24,0.6c-9.3,0-16.9,7.6-16.9,16.9c0,11.5,15.6,29.2,15.6,29.2c0.3,0.5,0.8,0.7,1.4,0.7c0.5,0,1-0.3,1.4-0.7
			c0,0,15.5-17.6,15.5-29.1C40.9,8.2,33.3,0.6,24,0.6"/>
		<path class="st1" d="M24.1,48c-0.8,0-1.5-0.4-1.9-1C21.6,46.3,6.5,29.1,6.5,17.5C6.5,7.9,14.3,0,24,0v0c9.6,0,17.5,7.9,17.5,17.5
			c0,11.6-15,28.8-15.6,29.5C25.5,47.6,24.8,48,24.1,48C24.1,48,24.1,48,24.1,48z M24,1.2c-9,0-16.3,7.3-16.3,16.3
			c0,11.2,15.3,28.6,15.4,28.8c0.3,0.4,0.6,0.5,1,0.5c0,0,0,0,0,0c0.3,0,0.7-0.2,0.9-0.5c0.2-0.2,15.4-17.6,15.4-28.8
			C40.3,8.5,33,1.2,24,1.2L24,1.2z"/>
	</g>
	<g>
		<circle class="st1" cx="23.8" cy="17.8" r="6.2"/>
	</g>
</g>
</svg>
