<?xml version="1.0" encoding="utf-8"?>
<!-- Generator: Adobe Illustrator 19.2.1, SVG Export Plug-In . SVG Version: 6.00 Build 0)  -->
<svg version="1.1" id="Слой_1" xmlns="http://www.w3.org/2000/svg" xmlns:xlink="http://www.w3.org/1999/xlink" x="0px" y="0px"
	 viewBox="0 0 118 118" style="enable-background:new 0 0 118 118;" xml:space="preserve">
<style type="text/css">
	.st0{fill:#FFFFFF;}
</style>
<path class="st0" d="M99.8,10.5c-7.5,0-14.2,4.6-17,11.5c-0.9,2.1-1.3,4.4-1.4,6.8c0,10.1,8.2,18.3,18.3,18.3
	c10.1,0,18.3-8.2,18.3-18.3C118,18.8,109.9,10.6,99.8,10.5z M111.2,29.3c-0.2,1.2-1.2,2.1-2.4,2.1h-6.6V38c0,1.3-1.1,2.4-2.4,2.4
	c-1.3,0-2.4-1.1-2.4-2.4v0v-6.6h-6.6c-1.2,0-2.3-0.9-2.5-2.1c0-0.1,0-0.2,0-0.3c0-1.3,1.1-2.4,2.4-2.4l0,0h6.6v-6.6
	c0-1.3,1.1-2.4,2.4-2.4c1.3,0,2.4,1.1,2.4,2.4v0v6.7h6.6c1.3,0,2.4,1.1,2.4,2.4v0C111.3,29.1,111.3,29.2,111.2,29.3z M57.4,49.9
	c-9.5,0-17.2,7.7-17.2,17.2s7.7,17.2,17.2,17.2s17.2-7.7,17.2-17.2S66.9,49.9,57.4,49.9L57.4,49.9z M57.4,78
	c-6,0-10.8-4.8-10.8-10.8s4.8-10.8,10.8-10.8s10.8,4.8,10.8,10.8C68.2,73.1,63.3,77.9,57.4,78L57.4,78z M74.6,28.8
	c0-5,1.5-9.9,4.3-14.1l-1.4-2.5c-0.6-1.1-1.7-1.7-2.9-1.7H40.8c-1.2,0-2.3,0.6-2.8,1.7l-9.5,17.1H3.2c-1.8,0-3.2,1.5-3.2,3.2v71.7
	c0,1.8,1.5,3.2,3.2,3.2h108.3c1.8,0,3.2-1.5,3.2-3.2V49c-11.1,8.3-26.9,6-35.2-5.1C76.4,39.5,74.6,34.3,74.6,28.8z M57.4,91.4
	c-13.4,0-24.3-10.9-24.3-24.3S44,42.8,57.4,42.8s24.3,10.9,24.3,24.3S70.8,91.4,57.4,91.4L57.4,91.4z"/>
</svg>
