<?xml version="1.0" standalone="no"?>
<!DOCTYPE svg PUBLIC "-//W3C//DTD SVG 1.1//EN" "http://www.w3.org/Graphics/SVG/1.1/DTD/svg11.dtd">
<svg xmlns="http://www.w3.org/2000/svg">
<metadata>Generated by Fontastic.me</metadata>
<defs>
<font id="quikloc8" horiz-adv-x="512">
<font-face font-family="quikloc8" units-per-em="512" ascent="480" descent="-32"/>
<missing-glyph horiz-adv-x="512" />

<glyph glyph-name="engine-hours" unicode="&#97;" d="M376 376c-32 33-74 51-120 51-46 0-88-18-120-51-33-32-51-74-51-120 0-46 18-89 51-120 32-33 74-51 120-51 6 0 10 0 16 1 0 0 1 0 1 0 6 1 11 1 16 3 33 7 63 23 87 47 28 26 45 62 50 101 0 1 0 1 0 2 1 6 1 11 1 17 0 46-18 88-51 120z m-24-198l-104 60c-5 3-9 9-9 15l0 105c0 10 8 17 17 17 9 0 16-7 16-17l0-93c0-1 1-3 2-4l95-55c7-5 10-14 6-23 0-1 0-1 0-2 0 0 0 0 0-1-1-1-1-1-2-2-2-1-4-2-6-3-7 0-11 1-15 3z"/>
<glyph glyph-name="header-alarm" unicode="&#98;" d="M412 135c-11 20-23 40-35 60-2 4-2 8-3 13 0 25 0 52 0 77 0 9-1 18-2 26-9 43-33 74-75 88-4 1-9 2-13 3 0 4 0 6 0 9 0 16-13 28-28 28-15 0-28-13-28-28 0-3 0-5 1-7-16-3-30-9-42-18-32-24-47-56-48-95-1-28 0-56 0-84 0-4-1-9-2-12-6-11-13-21-19-32-7-11-14-21-21-35l319 0c-2 0-3 5-4 7z m-186-54c21-12 44-13 65 1 11 7 19 17 19 31l-107 0c0-13 9-25 23-32z"/>
<glyph glyph-name="header-apply" unicode="&#99;" d="M192 167l-89 89-30-30 119-120 256 256-30 31z"/>
<glyph glyph-name="header-arrow-back" unicode="&#100;" d="M427 277l-260 0 119 119-30 31-171-171 171-171 30 31-119 118 260 0z"/>
<glyph glyph-name="header-delete" unicode="&#101;" d="M133 112c0-23 18-41 41-41l164 0c22 0 40 18 40 41l0 246-245 0z m267 308l-72 0-21 21-102 0-21-21-72 0 0-41 287 0 0 41z"/>
<glyph glyph-name="header-menu" unicode="&#102;" d="M92 376l327 0 0-42-327 0z m0-99l228 0 0-43-228 0z m0-100l114 0 0-42-114 0z"/>
<glyph glyph-name="header-settings" unicode="&#103;" d="M394 238c1 6 2 12 2 18 0 6-1 12-2 18l40 30c3 3 5 8 3 12l-37 64c-3 4-7 6-11 4l-47-19c-9 8-20 13-31 18l-8 50c-1 4-4 8-9 8l-74 0c-5 0-9-3-10-8l-6-49c-12-5-22-10-31-18l-47 19c-4 2-9 0-11-4l-37-64c-3-4-2-10 3-12l38-30c0-6-1-12-1-18 0-6 1-12 1-18l-38-30c-3-3-5-8-3-12l37-64c3-4 7-6 11-4l47 19c9-8 19-13 31-18l6-49c1-4 5-8 10-8l74 0c5 0 8 3 9 8l7 49c11 5 22 10 31 18l47-19c4-2 9 0 11 4l37 64c3 4 2 10-3 12z m-138-47c-36 0-65 28-65 65 0 37 28 65 65 65 37 0 65-28 65-65 0-37-29-65-65-65z"/>
<glyph glyph-name="menu-alarms" unicode="&#104;" d="M256 441c-102 0-185-83-185-185 0-102 83-185 185-185 102 0 185 83 185 185 0 102-83 185-185 185z m54-257l-27 0c0-15-13-28-28-28-15 0-27 13-27 28l-28 0c-9 0-19 5-24 13-7 13-2 30 10 37 0 3 0 35 0 35 0 31 21 57 50 66 0 2 0 3 0 4 1 10 11 18 20 16 9-2 17-11 15-20 30-8 50-35 50-66l0-35c9-5 15-14 15-24 2-15-11-26-26-26z"/>
<glyph glyph-name="menu-home" unicode="&#105;" d="M256 441c-102 0-185-83-185-185 0-102 83-185 185-185 102 0 185 83 185 185 0 102-83 185-185 185z m64-259l-47 0 0 45-33 0 0-45-47 0 0 93 64 48 63-48 0-93z"/>
<glyph glyph-name="menu-logout" unicode="&#106;" d="M256 441c-102 0-185-83-185-185 0-102 83-185 185-185 102 0 185 83 185 185 0 102-83 185-185 185z m-14-91c0 7 6 14 14 14 4 0 8-2 10-5 3-2 4-5 4-9l0-7c0-32 0-65 0-98 0-8-6-15-14-15-8 0-14 7-14 15 0 12 0 24 0 37 0 4 0 10 0 15l0 4c0 3 0 7 0 10 0 14 0 27 0 39z m33-200c-56-11-109 25-120 81l0 1c-5 34 3 66 28 91 3 3 7 5 10 5 4 0 8-2 10-4 3-3 5-6 5-10 0-4-2-8-4-11-12-11-18-25-21-40-6-41 23-78 64-84 40-5 77 23 83 64 3 23-4 43-21 60-5 5-6 10-4 16 2 7 11 12 18 9 2-1 5-2 6-4 18-18 28-40 29-64 0-2 0-4 0-6 0-1 0-2 0-3 0-51-34-92-83-101z"/>
<glyph glyph-name="menu-profile" unicode="&#107;" d="M230 441l-13-45c-11-3-23-7-33-13l-41 23-37-37 23-41c-6-10-10-22-13-33l-45-13 0-52 45-13c3-11 7-23 13-33l-23-41 37-37 41 23c10-6 22-10 33-13l13-45 52 0 13 45c11 3 23 7 33 13l41-23 37 37-23 41c6 10 10 22 13 33l45 13 0 52-45 13c-3 11-7 23-13 33l23 41-37 37-41-23c-10 6-22 10-33 13l-13 45c0 0-52 0-52 0z m26-101c46 0 84-38 84-84 0-46-38-84-84-84-46 0-84 38-84 84 0 46 38 84 84 84z m0-51c-19 0-33-15-33-33 0-18 15-33 33-33 18 0 33 15 33 33 0 18-14 33-33 33z"/>
<glyph glyph-name="menu-recharge-credit" unicode="&#108;" d="M71 158c0-13 11-24 25-24l321 0c13 0 25 10 25 24l0 125-370 0 0-125z m278 54c8 0 15-3 21-9 5 6 12 9 21 9 15 0 27-12 27-27 0-15-11-28-27-28-9 0-16 4-21 10-6-6-13-10-21-10-15 0-28 13-28 28 0 15 13 27 28 27z m67 166l-320 0c-14 0-25-10-25-24l0-42 370 0 0 42c0 13-11 24-25 24z"/>
<glyph glyph-name="menu-support" unicode="&#109;" d="M256 441c-102 0-185-83-185-185 0-102 83-185 185-185 102 0 185 83 185 185 0 102-83 185-185 185z m18-278l-35 0 0 102 35 0z m-18 138c-15 0-27 12-27 27 0 15 12 28 27 28 15 0 27-13 27-28 0-15-12-27-27-27z"/>
<glyph glyph-name="other-asset-add-image" unicode="&#110;" d="M433 466c-33 0-62-20-74-49-4-10-5-20-6-30 0-44 36-79 80-79 43 0 79 35 79 79 0 43-35 79-79 79z m49-81c0-5-5-9-10-9l-29 0 0-29c0-6-4-10-10-10-6 0-10 4-10 10l0 29-29 0c-5 0-10 4-11 9 0 0 0 1 0 1 0 6 5 11 11 11l28 0 0 28c0 6 5 11 11 11 5 0 10-5 10-11l0-29 29 0c5 0 10-5 10-10 1 0 1-1 0-1z m-233-90c-41 0-75-33-75-74 0-41 34-75 75-75 41 0 75 34 75 75 0 41-34 74-75 74z m0-121c-26 0-47 20-47 46 0 26 21 47 47 47 26 0 47-21 47-47 0-25-21-46-47-46z m75 213c0 22 6 43 18 61l-6 11c-2 5-7 7-12 7l-147 0c-5 0-10-2-12-7l-41-74-110 0c-8 0-14-7-14-14l0-311c0-8 7-14 14-14l470 0c8 0 14 6 14 14l0 239c-48-36-117-26-153 23-13 19-21 41-21 65z m-75-272c-58 0-105 48-105 106 0 58 47 105 105 105 58 0 105-47 105-105 0-58-47-106-105-106z"/>
<glyph glyph-name="other-asset-alarm2" unicode="&#111;" d="M401 144c-11 19-22 38-33 56-2 4-3 8-3 11 0 25 0 49 0 73 0 9 0 17-2 25-7 40-30 68-69 83-4 1-8 1-11 2 0 2 0 4 0 7 0 15-12 27-26 27-14 0-27-13-27-27 0-2 0-5 1-7-14-2-27-7-39-16-29-21-42-52-43-88-1-25 0-52 0-78 0-3-1-7-3-10-8-12-13-22-20-32-7-11-12-20-19-33l298 0c-2 0-3 5-4 7z m-173-50c20-11 40-12 60 1 11 6 17 16 17 29l-98 0c0-13 8-23 21-30z"/>
<glyph glyph-name="other-asset-attributes" unicode="&#112;" d="M130 407l222 0 0-13-222 0z m221 34c0 0-54 14-111 14-58 0-111-14-111-14l0-19 222 0z m14-281l-20-5c-35 29-57 100-65 132l-49 0c5-13 40-105 23-159l-20-6 17-56 20 6c14-12 33-17 53-11 19 5 33 21 38 39l20 5z m-46-82c-19-6-40 4-46 24-6 19 5 40 25 46 19 6 40-5 45-25 6-20-5-40-24-45z m1 197l32-1 0 104-222 0 0-104 31 0 0 1c0 10 9 19 19 19l122 0c10 0 18-9 18-19z m-79 45c-11 0-18 9-18 18 0 10 8 19 18 19 10 0 18-9 18-19 0-9-9-18-18-18z"/>
<glyph glyph-name="other-asset-geolock" unicode="&#113;" d="M256 427c-95 0-171-77-171-171 0-94 76-171 171-171 95 0 171 76 171 171 0 95-76 171-171 171z m0-308c-75 0-137 62-137 137 0 76 62 137 137 137 76 0 137-61 137-137 0-75-61-137-137-137z m0 183c-25 0-46-20-46-46 0-25 21-46 46-46 25 0 46 21 46 46 0 25-21 46-46 46z"/>
<glyph glyph-name="other-asset-immobilisation" unicode="&#114;" d="M379 302l-34 0c0 42 0 42 0 43 0 22-9 44-26 59-17 14-39 23-63 23-24 0-46-9-62-24-17-15-26-36-26-59 0 0 0-29 0-42l-35 0c-10 0-16-7-16-16l0-184c0-9 7-16 16-16l246 0c10 0 16 8 16 16l0 183c0 10-7 17-16 17z m-185 42c0 31 28 55 62 55 33 0 61-24 62-55 0-1 0-29 0-42l-124 0c0 13 0 41 0 42z m74-163l4-41-35 0 4 41c-12 5-21 17-21 31 0 19 15 35 34 35 19 0 34-16 34-35 1-14-7-26-20-31z"/>
<glyph glyph-name="other-asset-mileage" unicode="&#115;" d="M198 348l47 0 0-46-47 0z m93 0l47 0 0-46-47 0z m-139 70l0 23-47 0 0-370 47 0 0 162 254 0 0 185z m231-116l-46 0 0-46-47 0 0 46-46 0 0-46-47 0 0 46-45 0 0 47 46 0 0 46 47 0 0-46 46 0 0 46 47 0 0-46 46 0z"/>
<glyph glyph-name="other-asset-position" unicode="&#116;" d="M256 427c-71 0-128-57-128-128 0-107 117-214 128-214 9 0 128 107 128 214 0 71-57 128-128 128z m0-178c-27 0-50 23-50 51 0 27 23 50 50 50 27 0 50-23 50-50 0-28-23-51-50-51z"/>
<glyph glyph-name="other-asset-status" unicode="&#117;" d="M191 259l38 0 0-174-38 0z m184 168l37 0 0-342-37 0z m-92-117l37 0 0-225-37 0z m-183 64l37 0 0-289-37 0z"/>
<glyph glyph-name="other-asset-tracking-interval" unicode="&#118;" d="M239 227l-47 46c-6 7-18 7-24 0-7-7-7-18 0-25l75-74c1-1 1-1 2-1 1-1 2-2 3-3 0 0 0 0 1 0 2-1 5-2 7-2 2 0 5 1 7 2 0 0 0 0 1 0 1 1 2 1 3 2 1 0 1 1 2 1l75 74c7 7 7 18 0 25-6 7-18 7-24 0l-47-46 0 199c-6 2-11 2-17 2-6 0-12 0-18-1z m69 192l0-37c49-20 85-69 85-125 0-75-61-136-136-136-75 0-137 60-137 135 0 57 35 105 85 125l0 37c-69-22-120-86-120-162 0-94 77-171 171-171 94 0 171 77 171 171 0 76-51 140-119 163"/>
<glyph glyph-name="other-asset-unit" unicode="&#119;" d="M277 205c0-12-9-21-21-21-12 0-21 9-21 21 0 11 9 21 21 21 12 0 21-10 21-21z m164-11c0 4 0 7 0 11 0 4 0 6 0 10-6 97-86 175-185 175-99 0-179-78-185-175 0-3 0-6 0-10 0-3 0-7 0-11 2-25 9-49 19-71l331 0c11 21 18 46 20 71z m-161-10c-13-12-32-12-44 0-12 12-12 31 0 44 11 10 122 77 122 77 0 0-69-112-78-121z"/>
<glyph glyph-name="other-data-acc" unicode="&#120;" d="M409 393l-85 0c-18 0-25-5-25-23l0-90c0-18 8-43 25-43l17 0 0-100c0-2-2-3-1-4l26-27c1-2 3-2 5 0l26 27c1 1 2 2 2 4l0 13c0 2-1 3-2 5l-14 14c-1 1-1 3 0 4l12 12c3 3 3 8 0 11l-12 13c-1 1-1 1 0 2l14 15c1 1 2 3 2 4l0 7 11 0c18 0 32 26 32 43l0 90c-1 18-15 23-33 23z m-39-94c-14 0-27 11-27 26 0 14 12 27 27 27 14 0 26-12 26-27 0-15-12-26-26-26z m-100-19l0 90c0 10-5-5 0 9l-14 0c-3 0-6 11-9 11-19 0-37 3-56 1-14-2-32-5-45-24-8-10-19-41-28-64-6 6-14 6-22 6l-6 0c-10 0-19 3-19-7l0-15c0-10 9-22 20-36l10 0c-1 0-1 6-2 5-10-14-13-22-13-39l0-92c-1-11 7-30 17-30l25 0c10 0 14 19 14 29l0-1 171 0 0 98c-43 8-43 32-43 59z m-72-69c-2-6-7-17-14-17l-35 0c-9 0-15 14-15 22l0 13c0 8 6 17 15 17 1 0 3 1 4 0l35-13c7-3 12-14 10-22z"/>
<glyph glyph-name="other-data-address" unicode="&#121;" d="M256 441c-77 0-138-62-138-139 0-115 126-231 138-231 9 0 138 116 138 231 0 77-61 139-138 139z m0-193c-29 0-54 24-54 54 0 31 24 55 54 55 30 0 54-24 54-55 0-30-25-54-54-54z"/>
<glyph glyph-name="other-data-battery" unicode="&#122;" d="M408 346l-304 0c-19 0-33-15-33-33l0-169c0-19 15-33 33-33l304 0c19 0 33 15 33 33l0 169c0 19-15 33-33 33z m-217-128l-49 0c-5 0-10 5-10 11 0 5 5 10 10 10l49 0c5 0 10-5 10-10 0-6-5-11-10-11z m182 0l-14 0 0-13c0-6-4-11-10-11-6 0-11 5-11 11l0 13-13 0c-5 0-10 5-10 11 0 5 5 10 10 10l13 0 0 13c0 6 5 11 11 11 6 0 10-5 10-11l0-13 14 0c5 0 10-5 10-10 0-6-5-11-10-11z m-167 157c0 13-9 24-19 24l-42 0c-10 0-19-10-19-24l0-19 81 0 0 19z m182 2c0 13-9 24-19 24l-42 0c-10 0-19-10-19-24l0-20 81 0z"/>
<glyph glyph-name="other-data-battery-level" unicode="&#65;" d="M348 431l-44 0 0 31c0 5-3 8-7 8l-81 0c-5 0-8-4-8-8l0-31-43 0c-21 0-37-17-37-37l0-316c0-20 16-36 37-36l183 0c20 0 36 16 36 36l0 316c0 20-16 37-36 37z m2-353c0-1-1-2-2-2l-184 0c-1 0-2 1-2 2l0 316c0 2 1 2 2 2l183 0c2 0 2 0 2-2l0-316z m-25 73l-138 0c-2 0-4-2-4-4l0-47c0-2 2-4 4-4l139 0c2 0 4 2 4 4l0 47c-1 2-3 4-5 4z m0 75l-138 0c-2 0-4-2-4-4l0-47c0-2 2-4 4-4l139 0c2 0 4 2 4 4l0 47c-1 2-3 4-5 4z m0 75l-138 0c-2 0-4-2-4-4l0-47c0-2 2-4 4-4l139 0c2 0 4 2 4 4l0 47c-1 2-3 4-5 4z"/>
<glyph glyph-name="other-data-direction" unicode="&#66;" d="M441 256l-96 79 0-56-66 0 0 66 56 0-79 96-79-96 56 0 0-66-66 0 0 56-96-79 96-79 0 56 66 0 0-66-56 0 79-96 79 96-56 0 0 66 66 0 0-56z"/>
<glyph glyph-name="other-data-fuel" unicode="&#67;" d="M127 122l161 0c8 0 14 6 14 14 0 7-6 13-14 13l-1 0 0 98 16 0c6 0 11-5 11-11l0-37c0-24 19-42 42-42 23 0 41 19 41 42l0 120c0 3-2 8-4 11l-35 34c-5 7-16 7-22 0-7-6-7-16 0-23l29-29 0-113c0-6-4-10-9-11-6 0-11 4-12 9l0 38c0 23-19 42-42 42l-17 0 0 87c0 13-10 24-23 24l-107 0c-13 0-23-11-23-24l0-216-4 0c-8 0-13-6-13-13-1-7 4-13 12-13z m46 228c0 4 2 7 6 7l59 0c4 0 7-3 7-7l0-21c0-4-3-7-7-7l-59 0c-4 0-6 3-6 7z"/>
<glyph glyph-name="other-data-id" unicode="&#68;" d="M340 369l-75 27c-6 2-13 2-18 0l-75-27c-7-2-7-12 0-14l10-4 0-13c24-9 47-14 73-14l3 0c25 0 49 5 73 14l0 13 10 4c6 2 6 12-1 14z m-80-59l-9 0c-19 0-37 3-55 9 3-34 29-83 59-83 31 0 56 49 59 83-16-6-35-9-54-9z m110-89l-58 27c-14-18-34-30-56-30-23 0-42 12-56 30l-58-27c-9-4-16-11-19-18l0-89 266 0 0 89c-3 7-10 14-19 18z m-212-28l-6 14 40 20 6-14z m196 0l-40 20 6 14 40-20z"/>
<glyph glyph-name="other-data-speed" unicode="&#69;" d="M272 216c0-9-7-16-16-16-9 0-16 7-16 16 0 9 7 16 16 16 9 0 16-7 16-16z m126-7c0 2 0 5 0 8 0 3 0 6 0 8-4 75-66 133-142 133-76 0-137-59-142-133 0-3 0-6 0-8 0-2 0-6 0-7 1-20 6-38 14-55l255 0c9 15 14 34 15 54z m-124-9c-9-9-25-9-33 0-10 10-10 25 0 33 8 9 94 60 94 60 0 0-53-85-61-93z"/>
<glyph glyph-name="other-data-temperature" unicode="&#70;" d="M338 354l-26 15 26 16z m-79-54l43 0 0-8-43 0z m0 37l27 0 0-8-27 0z m0 36l43 0 0-8-43 0z m0-109l27 0 0-8-27 0z m-9-57l0 165c0 14-11 26-26 26-14 0-27-11-27-26l0-166c-14-9-23-25-23-43 0-27 22-50 50-50 27 0 50 23 50 50 1 19-9 34-24 44z m9 20l43 0 0-8-43 0z"/>
<glyph glyph-name="other-data-voltag" unicode="&#71;" d="M165 251l42 76c4 6 12 9 19 6 5-3 8-8 8-14l0-54 24 0c7 0 13-5 13-12 0-3 0-5-1-6l-42-76c-3-5-8-8-13-8-8 0-14 7-14 14l0 54-24 0c-7 0-12 6-12 13-1 3-1 4 0 7z m172 60l-23 0 0 22c0 6-3 11-9 12-6 1-12-3-13-9 0-1-1-2-1-3l0-22-22 0c-6 0-11-4-12-9-1-7 3-13 9-14 1 0 2-1 3-1l23 0 0-22c0-6 3-10 9-11 6-2 12 2 13 9 0 1 1 1 1 2l0 23 23 0c6 0 11 5 11 11 0 1 0 2-1 3-1 6-6 9-11 9z"/>
<glyph glyph-name="other-dot" unicode="&#72;" d="M512 256c0-141-115-256-256-256-141 0-256 115-256 256 0 141 115 256 256 256 141 0 256-115 256-256z"/>
<glyph glyph-name="other-location-address2" unicode="&#73;" d="M256 441c-77 0-138-62-138-139 0-115 126-231 138-231 9 0 138 116 138 231 0 77-61 139-138 139z m0-193c-29 0-54 24-54 54 0 31 24 55 54 55 30 0 54-24 54-55 0-30-25-54-54-54z"/>
<glyph glyph-name="other-location-close" unicode="&#74;" d="M140 401l261-261-30-30-261 261z m261-29l-261-261-30 30 261 261z"/>
<glyph glyph-name="other-location-maps" unicode="&#75;" d="M512 256c0-141-115-256-256-256-141 0-256 115-256 256 0 141 115 256 256 256 141 0 256-115 256-256z m-256-101l-107 82-24-18 131-101 131 101-24 18z m0 37l107 83 24 18-131 101-131-101 24-18z"/>
<glyph glyph-name="other-location-pin-map" unicode="&#76;" d="M152 54l360 87-370 37z m0 404c-85 0-152-68-152-152 0-126 138-252 152-252 10 0 152 126 152 252-1 84-68 152-152 152z m0-211c-33 0-59 27-59 59 0 33 26 59 59 59 32 0 59-26 59-59 0-32-27-59-59-59z"/>
<glyph glyph-name="other-location-refresh" unicode="&#77;" d="M236 154l41-35-41-34 0 22c-72 11-128 73-128 149 0 52 27 99 66 125 10 7 21-1 21-11 0-5-2-10-5-12-34-21-55-59-55-102 0-61 43-112 100-121l0 19z m40 273l-41-34 41-35 0 19c57-9 100-60 100-121 0-43-21-81-55-102-3-2-5-7-5-12 0-10 12-18 21-11 39 26 66 73 66 125 0 76-56 138-128 149z"/>
<glyph glyph-name="other-profile-address" unicode="&#78;" d="M256 441c-77 0-138-62-138-139 0-115 126-231 138-231 9 0 138 116 138 231 0 77-61 139-138 139z m0-193c-29 0-54 24-54 54 0 31 24 55 54 55 30 0 54-24 54-55 0-30-25-54-54-54z"/>
<glyph glyph-name="other-profile-email" unicode="&#79;" d="M393 393l-274 0c-19 0-34-15-34-35l0-204c0-20 15-35 34-35l274 0c19 0 34 15 34 35l0 204c0 20-15 35-34 35z m0-69l-137-85-137 85 0 34 137-85 137 85z"/>
<glyph glyph-name="other-profile-name" unicode="&#80;" d="M256 256c47 0 85 38 85 85 0 48-38 86-85 86-47 0-85-38-85-86 0-47 38-85 85-85z m0-43c-57 0-171-28-171-85l0-43 342 0 0 43c0 57-114 85-171 85z"/>
<glyph glyph-name="other-profile-password" unicode="&#81;" d="M349 313l0 35c0 51-42 93-93 93-51 0-93-42-93-93l0-35c-28-26-46-63-46-103 0-77 61-139 138-139 77 0 139 62 139 139 0 41-18 77-45 103z m-70-126c0-13-11-23-23-23-12 0-23 10-23 23l0 46c0 13 11 23 23 23 12 0 23-10 23-23z m23 153c-14 5-30 9-46 9-16 0-31-3-46-9l0 9c0 26 20 46 46 46 26 0 46-20 46-46z"/>
<glyph glyph-name="other-profile-phone" unicode="&#82;" d="M186 441c-21 0-37-16-40-36l220 0c-2 20-19 36-40 36z m-40-53l0-246 220 0 0 246z m0-264l0-13c0-22 18-40 40-40l141 0c22 0 40 18 40 40l0 13z m80-17l61 0c5 0 9-4 9-9 0-4-4-8-9-8l-61 0c-5 0-9 4-9 8 0 5 3 9 9 9z"/>
<glyph glyph-name="other-profile-phone2" unicode="&#83;" d="M360 262l22 0c0 66-54 121-121 121l0-23c55 0 99-44 99-98z m55-77l-88 33-33-33c-44 29-81 66-110 110l33 33-33 88-6 0c-24 0-47-9-64-26-18-18-29-43-29-69 0-17 5-34 14-48 41-72 101-132 173-173 15-9 31-14 48-14 26 0 51 11 69 29 17 17 26 40 26 64z m-153 242l0-22c78 0 143-65 143-143l22 0c0 91-74 165-165 165z"/>
<glyph glyph-name="other-route" unicode="&#84;" d="M442 288l-154 154c-18 18-47 18-65 0l-153-154c-18-18-18-47 0-65l153-153c18-18 47-18 65 0l153 153c19 19 19 47 1 65z m-174-44l0 23-47 0 0-58c0-7-6-13-12-13-7 0-13 6-13 13l0 58c0 24 24 24 24 24l47 0 0 24 48-36z"/>
<glyph glyph-name="other-satellite" unicode="&#85;" d="M320 315l-13-13c-3-2-3-7 0-10l13-12c2-3 7-3 10 0l12 12c3 3 3 8 0 10l-12 13c-4 3-8 3-10 0z m37-9l12 13c3 2 3 7 0 10l-12 12c-3 3-8 3-11 0l-12-12c-3-3-3-8 0-10l12-13c3-3 8-3 11 0z m39 51l-12 12c-3 3-8 3-10 0l-14-12c-3-3-3-8 0-11l13-12c2-3 7-3 10 0l12 12c4 3 4 8 1 11z m-104-51c3-3 8-3 10 0l13 13c3 2 3 7 0 10l-13 12c-2 3-7 3-10 0l-12-12c-3-3-3-8 0-10z m27 28c2-3 7-3 10 0l12 12c3 3 3 8 0 11l-12 12c-3 3-8 3-10 0l-13-12c-3-3-3-8 0-11z m27 26c3-3 8-3 11 0l12 13c3 2 3 7 0 10l-12 12c-3 3-8 3-11 0l-12-12c-3-3-3-8 0-10z m-180-208c-3 3-8 3-11 0l-12-13c-3-2-3-7 0-10l12-12c3-3 8-3 11 0l12 12c3 3 3 8 0 10z m27 26c-2 3-7 3-10 0l-12-12c-3-3-3-8 0-11l12-12c3-3 8-3 10 0l13 12c3 3 3 8 0 11z m27 28c-3 3-8 3-10 0l-13-13c-3-2-3-7 0-10l13-12c2-3 7-3 10 0l12 12c3 3 3 8 0 10z m-68-40l-13 12c-2 3-7 3-10 0l-12-12c-3-3-3-8 0-11l12-12c3-3 8-3 10 0l13 12c3 3 3 8 0 11z m3 4c3-3 8-3 11 0l12 12c3 3 3 8 0 10l-12 13c-3 3-8 3-11 0l-12-13c-3-2-3-7 0-10z m28 27c3-3 8-3 10 0l13 13c3 2 3 7 0 10l-13 12c-2 3-7 3-10 0l-12-12c-3-3-3-8 0-10z m147 42l-88 88c-3 3-8 3-11 0l-48-48c-3-3-3-8 0-11l88-88c3-3 8-3 11 0l48 49c3 3 3 7 0 10z m-16-42c-15-15-17-40-5-57 3-3 8-3 11 0l52 52c3 3 3 9 0 11-18 11-43 9-58-6z m43-28c-7 0-14-7-14-14 0-8 7-15 14-15 8 0 15 7 15 15 0 7-6 14-15 14z"/>
<glyph glyph-name="other-signal" unicode="&#86;" d="M388 131c-6 0-11 5-11 10l0 186c0 6 5 11 11 11 5 0 10-5 10-11l0-187c0-5-5-9-10-9z m-159 0c-6 0-11 5-11 10l0 51c0 5 5 10 11 10 5 0 10-5 10-10l0-51c0-6-5-10-10-10z m53 0c-6 0-11 5-11 10l0 94c0 6 5 11 11 11 5 0 10-5 10-11l0-94c0-6-5-10-10-10z m53 0c-6 0-11 5-11 10l0 142c0 5 5 10 11 10 5 0 10-5 10-10l0-142c0-6-5-10-10-10z m-98 242c0 2 0 2-1 2 0 0 0 1 0 1 0 1-1 1-1 2 0 0 0 0-1 1 0 0-1 1-1 1 0 0 0 0-1 1 0 0-1 0-1 1 0 0 0 0-1 0-1 0-1 0-2 0l-104 0c-1 0-2 0-3 0 0 0 0 0-1 0 0 0 0 0-1 0 0 0 0-1-1-1 0 0 0 0-1-1 0 0 0 0-1-1 0 0 0 0-1-1 0 0 0-1-1-1 0 0-1-1-1-1 0 0 0 0 0-1 0 0 0 0-1-1 0 0 0-1 0-1 0 0 0-1 0-1 0-1 0-2 1-3 0 0 0-1 0-1 0 0 0-1 0-1 0 0 0 0 0-1 1-1 1-2 2-2l47-41 0-182c0-5 5-10 11-10 5 0 10 5 10 10l0 181 47 41c0 0 1 1 1 1 0 0 1 1 1 1 0 0 0 0 1 1 0 0 0 1 1 1 0 0 0 0 0 1 0 1 0 2 0 3 3 1 3 1 3 2z m-62-33l-23 21 47 0z"/>
<glyph glyph-name="other-status-acc2" unicode="&#87;" d="M409 408l-85 0c-18 0-30-20-30-38l0-90c0-18 13-24 30-24l17 0 0-119c0-2-2-3-1-4l26-27c1-2 3-2 5 0l26 27c1 1 2 2 2 4l0 13c0 2-1 3-2 5l-14 14c-1 1-1 3 0 4l12 12c3 3 3 8 0 11l-12 13c-1 1-1 1 0 2l14 15c1 1 2 3 2 4l0 26 11 0c18 0 27 7 27 24l0 90c-1 18-10 38-28 38z m-39-109c-14 0-27 11-27 26 0 14 12 27 27 27 14 0 26-12 26-27 0-15-12-26-26-26z m-105-19l0 90c0 10 0 9 5 28l-14 0c-3 0-6 1-9 1-19 0-37-1-56-4-14-2-32-7-45-25-8-11-19-35-28-58-6 6-14 11-22 11l-6 0c-10-1-24-12-24-22l0-15c0-9 14-2 25-21l10 0c-1 0-1-1-2-2-10-15-13-30-13-46l0-92c-1-11 7-11 17-11l25 0c10 0 14 0 14 10l0 18 171 0 0 79c-48 8-48 32-48 59z m-67-61c-2-7-7-10-14-10l-35 0c-9 0-15 5-15 14l0 8c0 9 6 16 15 16 1 0 3 0 4-1l35-10c7-2 12-9 10-17z"/>
<glyph glyph-name="other-status-acc3" unicode="&#88;" d="M411 412l-85 0c-18 0-26-30-26-48l0-90c0-18 9-18 26-18l15 0 0-125c0-2-1-3-1-4l26-26c1-2 3-2 5 0l26 26c1 1 1 2 1 4l0 13c0 2-1 3-2 5l-14 14c-1 1-1 3 0 4l12 12c3 3 3 9 0 12l-12 12c-1 1-1 2 0 3l14 14c1 1 2 3 2 5l0 31 13 0c18 0 30 0 30 18l0 90c0 18-13 48-30 48z m-40-119c-14 0-27 11-27 27 0 14 12 26 27 26 14 0 26-11 26-26 0-16-12-27-26-27z m-248 10c-7-2-14-6-21-9-18-10-31-21-31-34 0-33 45-96 45-96 5-9 16-14 26-14 11 0 21 5 27 14l8 12 9-12c6-8 13-12 22-13l0 178c-14-4-52-12-85-26z m150 95l-118 0c-34 0-52-18-52-50l0-74c7 3 14 7 21 9l0 65c0 19 8 29 31 29l47 0 0-39c1 0 2 0 4 0 1 0 2 0 3 1 1 0 1 0 1 0 1 0 1 0 1 0 0 0 1 0 1 0l4 0c0 0 1 0 2 0 0 0 1 0 1 0l1 0c1 0 2 0 2-1 1 0 2 0 4 0l0 39 45 0c1 7 3 15 5 21-1 0-2 0-3 0z m-3-124l0 41c-22 6-42 11-51 13l0-178c9 2 17 6 22 13l8 12 9-12c6-8 16-14 26-14 11 0 21 5 27 14 0 0 0 1 2 2l0 63c-18 2-43 10-43 46z m43-124c-8-7-18-11-29-11-14 0-27 8-36 18-7-11-20-18-36-18-14 0-27 8-36 18-7-11-21-18-36-18-15 0-27 8-36 18-7-11-21-18-36-18l0-25c14 0 28 7 36 18 8-12 21-18 36-18 15 0 28 7 36 18 8-12 21-18 36-18 16 0 28 7 36 18 8-12 21-18 36-18 11 0 20 4 28 10 0 3 0 7 1 11z"/>
<glyph glyph-name="other-status-battery2" unicode="&#89;" d="M408 346l-304 0c-19 0-33-15-33-33l0-169c0-19 15-33 33-33l304 0c19 0 33 15 33 33l0 169c0 19-15 33-33 33z m-217-128l-49 0c-5 0-10 5-10 11 0 5 5 10 10 10l49 0c5 0 10-5 10-10 0-6-5-11-10-11z m182 0l-14 0 0-13c0-6-4-11-10-11-6 0-11 5-11 11l0 13-13 0c-5 0-10 5-10 11 0 5 5 10 10 10l13 0 0 13c0 6 5 11 11 11 6 0 10-5 10-11l0-13 14 0c5 0 10-5 10-10 0-6-5-11-10-11z m-167 157c0 13-9 24-19 24l-42 0c-10 0-19-10-19-24l0-19 81 0 0 19z m182 2c0 13-9 24-19 24l-42 0c-10 0-19-10-19-24l0-20 81 0 0 20z"/>
<glyph glyph-name="other-status-date" unicode="&#90;" d="M464 448l-33 0 0 24c0 22-18 40-39 40-22 0-40-18-40-40l0-24-192 0 0 24c0 22-18 40-40 40-21 0-39-18-39-40l0-24-33 0c-26 0-48-21-48-48l0-352c0-26 22-48 48-48l417 0c26 0 48 22 48 48l0 352c-1 27-23 48-49 48m-16-384l-384 0 0 272 384 0z m-336 176l0 32c0 9 7 16 16 16l32 0c9 0 16-7 16-16l0-32c0-9-7-16-16-16l-32 0c-9 0-16 7-16 16m112 0l0 32c0 9 7 16 16 16l32 0c9 0 16-7 16-16l0-32c0-9-7-16-16-16l-32 0c-9 0-16 7-16 16m112 0l0 32c0 9 7 16 16 16l32 0c9 0 16-7 16-16l0-32c0-9-7-16-16-16l-32 0c-9 0-16 7-16 16m-224-112l0 32c0 9 7 16 16 16l32 0c9 0 16-7 16-16l0-32c0-9-7-16-16-16l-32 0c-9 0-16 7-16 16m112 0l0 32c0 9 7 16 16 16l32 0c9 0 16-7 16-16l0-32c0-9-7-16-16-16l-32 0c-9 0-16 7-16 16"/>
<glyph glyph-name="other-status-imei" unicode="&#48;" d="M392 440l-272 0c-27 0-49-22-49-49l0-269c0-27 22-49 49-49l272 0c27 0 49 22 49 49l0 269c0 26-22 49-49 49z m-235-319l-37 0 0 270 37 0z m50 25l-25 0 0 245 25 0z m74 0l-37 0 0 245 37 0z m49 0l-25 0 0 245 25 0z m62-25l-37 0 0 270 37 0z"/>
<glyph glyph-name="other-status-mileage" unicode="&#49;" d="M361 404c-14 0-25-11-25-26 0-14 11-25 25-25 14 0 26 11 26 25 0 15-12 26-26 26m151 37c0 39-32 71-71 71l-370 0c-39 0-71-32-71-71l0-370c0-39 32-71 71-71l370 0c39 0 71 32 71 71z m-308-339c-7-14-21-24-37-24-23 0-41 18-41 41 0 22 18 40 41 40 17 0 31-10 37-24 2-5 4-11 4-16 0-6-2-12-4-17m152 57c0-14-8-27-17-38-1-1-3-2-4-4-8-8-16-13-27-16-6-1-12-2-19-2l-66 0c3 0 4 14 4 21 0 8-2 8-4 22l66 0c13 0 23 9 23 22 0 13-10 22-23 22l-156 0c-34 0-63 29-63 64 0 35 29 65 63 65l172 0 32-43-204 0c-13 0-23-8-23-22 0-13 10-22 23-22l155 0c18 0 34-11 46-23 1-1 4-3 6-5 9-11 17-25 17-40l0-1z m60 176l-55-70-55 70c-9 12-15 27-15 43 0 39 31 70 70 70 39 0 70-31 70-70 0-16-5-31-15-43"/>
<glyph glyph-name="other-status-power" unicode="&#50;" d="M86 243c0 47 20 83 39 106 19 23 38 34 40 35 12 8 28 3 36-9 8-13 3-29-9-37 0 0-1 0-1 0-1-1-3-2-6-5-5-4-11-11-19-18-13-16-27-40-27-73 0-33 14-63 35-85 21-21 50-35 83-35 32 0 62 14 83 35 21 22 35 52 35 85 0 31-13 54-26 71-12 15-26 25-28 25-12 7-16 23-9 36 8 12 24 17 36 9 2-1 20-12 40-35 19-23 39-59 39-106 0-95-76-172-170-172-95 1-171 78-171 173z m143 13l0 159c0 15 12 27 27 27 14 0 27-12 27-27l0-159c0-14-12-27-27-27-14 0-27 13-27 27z"/>
<glyph glyph-name="other-status-relay" unicode="&#51;" d="M398 441l-284 0c-24 0-43-19-43-43l0-284c0-24 19-43 43-43l284 0c24 0 43 19 43 43l0 284c0 24-19 43-43 43z m-157-71c0 8 6 15 15 15 9 0 15-7 15-15l0-98c0-8-6-15-15-15-9 0-15 7-15 15z m-67-228c0-8-7-15-16-15-8 0-15 7-15 15l0 102c0 8 7 15 15 15 9 0 16-7 16-15z m119-15l-74 0c-9 0-15 7-15 15 0 9 6 15 15 15l74 0c9 0 15-6 15-15 0-7-6-15-15-15z m0 55l-74 0c-9 0-15 7-15 15 0 9 6 15 15 15l74 0c9 0 15-6 15-15 0-8-6-15-15-15z m77-40c0-8-7-15-15-15-9 0-16 7-16 15l0 102c0 8 7 15 16 15 8 0 15-7 15-15z"/>
<glyph glyph-name="other-status-satellite2" unicode="&#52;" d="M372 113l-10 20 35 35 9-20z m-151 222l20-9-35-35-20 9z m-72 72l20-9-36-36-20 9z m141-202l35 35 9-20-35-35z m150-53l-23 49c-1 1-1 2-2 3 0 0-1 1-1 1-1 1-1 1-2 2-1 0-1 1-1 1 0 0-1 1-1 1l-45 20-20 44c1 4 1 8 1 11 0 0 0 0 0 1 4-1 9-1 12-1 19 0 37 8 52 21 5 6 5 16 0 22l-82 82c-6 5-16 5-22 0-17-17-23-42-20-65-3 0-7 0-11-1 0 0-1 0-1 1l-45 20-19 45c-1 1-1 2-2 2 0 0-1 1-1 1-1 1-1 1-2 2-1 0-1 1-2 1 0 0-1 1-1 1l-50 24c-6 3-13 1-17-3l-59-60c-4-3-5-8-5-13 1-5 4-9 9-11l44-20 20-45c1-1 1-2 2-3 0 0 1-1 1-1 1-1 1-1 2-1 0 0 1-1 1-1 1 0 1-1 2-1l38-17c-1-3-1-6-1-9l-47-15c-5-2-9-6-10-11-1-6 0-11 4-15l27-27-27-28c-6-5-6-16 0-22 2-2 6-4 10-4 4 0 8 2 10 4l28 28 27-28c3-2 7-4 11-4 1 0 3 0 4 0 5 1 9 4 11 10l15 47c3 0 6 1 9 1l17-38c0 0 0 0 0-1 0-1 1-2 2-3 0 0 1-1 1-1 1-1 1-1 2-2 0 0 0-1 1-1 0 0 1-1 1-1l45-20 20-44c2-5 7-8 11-9 1 0 2 0 3 0 4 0 8 2 11 5l58 59c8 4 9 11 7 17z m-27 232c0-10-8-18-18-18-10 0-18 8-18 18 0 10 8 18 18 18 10 0 18-8 18-18z"/>
<glyph glyph-name="other-status-signal2" unicode="&#53;" d="M143 235l39-38c3-3 7-3 10 0 18 15 40 23 64 23 24 0 47-9 65-24 3-2 7-2 10 0l38 39c3 3 3 8 0 10-64 58-167 56-226 0-3-3-3-7 0-10z m71-72l37-36c3-3 7-3 10 0l36 37c3 3 3 8-1 10-22 17-58 17-81 0-4-3-4-8-1-11z m-141 141l38-38c3-2 7-2 9 0 38 35 84 53 136 53 52 0 97-18 136-53 2-2 6-2 9 0l38 38c3 3 3 8 0 10-107 102-273 91-366 1-3-3-3-8 0-11z"/>
<glyph glyph-name="other-status-speed" unicode="&#54;" d="M114 43c86-58 198-58 283 0-85 58-197 58-283 0m142 256c-24 0-43-19-43-43 0-24 19-43 43-43 24 0 43 19 43 43 0 24-19 43-43 43m181 138c-48 48-113 75-181 75-141 0-256-115-256-256 0-81 37-153 96-199 96 68 222 66 315 4 1-1 2-3 3-5 60 46 98 118 98 200 0 68-27 133-75 181m-191 43c0 5 4 10 10 10 6 0 10-5 10-10l0-53c0-6-4-11-10-11-6 0-10 5-10 11z m-161-234l-53 0c-5 0-10 4-10 10 0 6 5 10 10 10l53 0c6 0 11-4 11-10 0-6-5-10-11-10m58 123c-2-2-5-3-7-3-3 0-6 1-8 3l-38 38c-4 4-4 11 0 15 4 4 11 4 15 0l38-38c4-4 4-10 0-15m180 21l-33-80c18-11 30-31 30-54 0-35-28-64-63-64-35 0-65 28-65 64 0 35 29 64 65 64 5 0 9 0 14-1l32 79c2 6 9 8 15 6 4-2 7-9 5-14m61-21c-2-2-5-3-8-3-2 0-5 1-7 3-4 4-4 11 0 15l38 38c4 4 11 4 15 0 4-4 4-11 0-15z m96-123l-53 0c-6 0-11 4-11 10 0 6 5 10 11 10l53 0c5 0 10-4 10-10 1-6-5-10-10-10"/>
<glyph glyph-name="other-status-tower" unicode="&#55;" d="M191 388c-4 4-10 4-14 0-44-45-44-116-1-160 2-2 5-3 7-3 2 0 5 1 7 3 3 3 3 9 0 13-36 36-36 95 0 132 4 4 4 10 1 15z m131-160c2-2 5-3 7-3 2 0 5 1 7 3 43 43 43 114 0 159-4 4-10 4-14 0-3-4-3-10 0-13 36-36 36-95 0-132-3-4-3-10 0-14z m-189-54c3 0 4 1 6 3 4 4 4 10 0 14-64 64-64 168 0 233 4 4 4 9 0 13-3 4-9 4-13 0-72-72-72-189 0-261 1-1 4-2 7-2z m240 264c-4-4-4-9 0-13 64-65 64-169 0-233-4-4-4-10 0-14 2-2 4-3 6-3 3 0 5 1 7 3 72 72 72 189 0 261-3 3-10 3-13-1z m-84-98c-18 18-48 18-66 0-18-18-18-48 0-66 3-3 6-5 8-7l-70-175c-3-7-1-13 5-17 3-2 6-3 8-3 3 0 7 1 10 4l72 61 72-61c3-3 6-4 10-4 2 0 5 1 8 3 6 4 8 11 5 17l-70 177c2 2 5 4 8 7 19 17 19 46 0 64z m-103-238l27 71 28-24z m140 0l-55 48 28 24z m-35 90l-35-30-34 30 27 70c3-1 5-1 7-1 3 0 5 0 7 1z"/>
<glyph glyph-name="other-status-voltage2" unicode="&#56;" d="M74 249l84 152c8 13 23 18 37 12 11-4 17-15 17-27l0-107 48 0c14 0 25-12 26-26 0-5-1-8-3-12l-84-152c-5-9-14-15-25-15-16 0-28 13-28 28l0 108-47 0c-15 0-26 12-26 26-2 5-1 10 1 13z m343 121l-44 0 0 44c0 12-8 21-18 23-13 3-25-6-28-18 0-2-1-3-1-5l0-44-44 0c-12 0-21-8-23-18-3-13 6-25 18-28 2 0 3-1 5-1l45 0 0-44c0-12 8-21 18-23 12-3 25 6 28 18 0 2 1 3 1 5l0 45 45 0c12 0 23 11 23 23 0 2 0 3-1 5-3 11-12 19-24 18z"/>
<glyph glyph-name="password-eye" unicode="&#57;" d="M446 257c0 1 0 1 0 1 0 3-2 6-4 7-12 15-27 28-41 39-31 25-67 47-107 55-23 5-47 5-69 1-21-3-42-11-61-21-29-15-57-36-81-59-4-5-8-9-12-14-6-6-6-13 0-19 12-15 27-28 41-39 31-25 67-47 107-55 23-5 46-5 69-1 21 3 42 11 61 21 29 15 57 36 81 59 4 5 8 9 12 14 2 1 4 4 4 7 0 2 0 3 0 4 0-1 0-1 0 0z m-190-74c-41 0-73 32-73 73 0 41 32 73 73 73 41 0 73-32 73-73 0-41-32-73-73-73z m24 73c0-13-11-24-24-24-13 0-24 11-24 24 0 13 11 24 24 24 13 0 24-11 24-24z"/>
</font>
</defs>
</svg>
